<svg width="21" height="20" viewBox="0 0 21 20" fill="none" xmlns="http://www.w3.org/2000/svg">
    <path d="M10.7284 8.5945e-07C5.20277 -0.0022943 0.727295 4.59261 0.727295 10.2639C0.727295 14.7487 3.52698 18.5609 7.42599 19.961C7.95107 20.0964 7.87063 19.7131 7.87063 19.4515V17.6727C4.83857 18.0376 4.71568 15.9766 4.51235 15.6323C4.10122 14.9116 3.12926 14.728 3.41973 14.3837C4.11016 14.0188 4.81399 14.4756 5.62954 15.7126C6.21942 16.6101 7.37013 16.4586 7.9533 16.3094C8.08066 15.77 8.35326 15.288 8.72864 14.9139C5.58709 14.3356 4.27774 12.3663 4.27774 10.0252C4.27774 8.88914 4.64194 7.84485 5.35695 7.00253C4.90113 5.61396 5.3994 4.42506 5.46643 4.24834C6.76461 4.12899 8.11418 5.20312 8.21919 5.28804C8.95654 5.08377 9.79891 4.9759 10.7418 4.9759C11.6892 4.9759 12.5338 5.08836 13.2778 5.29493C13.5303 5.09754 14.7816 4.17489 15.9882 4.28735C16.053 4.46408 16.5401 5.62543 16.1111 6.99564C16.835 7.84026 17.2037 8.89374 17.2037 10.0321C17.2037 12.3778 15.8854 14.3493 12.7349 14.9185C13.0047 15.1911 13.219 15.5162 13.3652 15.8748C13.5113 16.2334 13.5865 16.6183 13.5862 17.0071V19.5892C13.6041 19.7957 13.5862 20 13.9214 20C17.8785 18.6298 20.7273 14.79 20.7273 10.2662C20.7273 4.59261 16.2496 8.5945e-07 10.7284 8.5945e-07Z" fill="#B9C4CA"></path>
</svg>
