<svg width="19" height="19" viewBox="0 0 19 19" fill="none" xmlns="http://www.w3.org/2000/svg">
    <path fill-rule="evenodd" clip-rule="evenodd" d="M14.5386 4.46009C13.5873 3.50941 12.3864 2.84736 11.0747 2.55049C9.76305 2.25362 8.39412 2.33404 7.12622 2.78247C5.85831 3.23089 4.74321 4.02901 3.90983 5.08454C3.07645 6.14006 2.55882 7.4099 2.41679 8.74725C2.27476 10.0846 2.51412 11.4348 3.10721 12.6419C3.7003 13.8489 4.62289 14.8634 5.76832 15.5681C6.91376 16.2729 8.23526 16.639 9.58004 16.6243C10.9248 16.6095 12.238 16.2145 13.3677 15.4848C13.4985 15.3952 13.6459 15.3326 13.8012 15.3008C13.9566 15.269 14.1167 15.2687 14.2722 15.2998C14.4277 15.3309 14.5753 15.3928 14.7065 15.4819C14.8377 15.571 14.9497 15.6855 15.0359 15.8186C15.1221 15.9517 15.1808 16.1007 15.2085 16.2568C15.2362 16.4129 15.2323 16.573 15.1971 16.7276C15.162 16.8822 15.0962 17.0282 15.0037 17.157C14.9112 17.2858 14.7938 17.3948 14.6585 17.4775C12.8852 18.6241 10.7804 19.1473 8.67667 18.9642C6.5729 18.7812 4.59007 17.9025 3.04144 16.4668C1.49281 15.0312 0.466659 13.1205 0.125102 11.0366C-0.216455 8.95265 0.146054 6.81434 1.15536 4.95944C2.16466 3.10454 3.76322 1.63879 5.6985 0.793771C7.63377 -0.0512522 9.79543 -0.227383 11.842 0.293204C13.8885 0.813791 15.7033 2.00142 16.9995 3.66846C18.2958 5.33551 18.9997 7.38693 19 9.49865C19.0002 10.1603 18.8161 10.809 18.4684 11.372C18.1207 11.935 17.623 12.3899 17.0312 12.686C16.4394 12.982 15.7769 13.1073 15.1179 13.048C14.4588 12.9886 13.8294 12.7469 13.3 12.3498C12.6233 13.2521 11.6476 13.8841 10.5476 14.1329C9.44749 14.3816 8.29481 14.2308 7.29576 13.7074C6.29672 13.184 5.51649 12.3223 5.0947 11.2763C4.6729 10.2303 4.63706 9.06832 4.99358 7.99832C5.3501 6.92831 6.07572 6.02007 7.0406 5.43611C8.00549 4.85216 9.14668 4.63058 10.26 4.81103C11.3733 4.99148 12.3861 5.56218 13.1171 6.42103C13.8481 7.27987 14.2497 8.37081 14.25 9.49865C14.25 9.81359 14.3751 10.1156 14.5978 10.3383C14.8205 10.561 15.1226 10.6861 15.4375 10.6861C15.7524 10.6861 16.0545 10.561 16.2772 10.3383C16.4999 10.1156 16.625 9.81359 16.625 9.49865C16.625 7.67346 15.9291 5.85302 14.5386 4.46009ZM11.875 9.49865C11.875 8.86876 11.6248 8.26467 11.1794 7.81927C10.734 7.37387 10.1299 7.12365 9.50001 7.12365C8.87012 7.12365 8.26603 7.37387 7.82063 7.81927C7.37523 8.26467 7.12501 8.86876 7.12501 9.49865C7.12501 10.1285 7.37523 10.7326 7.82063 11.178C8.26603 11.6234 8.87012 11.8736 9.50001 11.8736C10.1299 11.8736 10.734 11.6234 11.1794 11.178C11.6248 10.7326 11.875 10.1285 11.875 9.49865Z" fill="#B9C4CA"></path>
</svg>
