<svg id="svg" version="1.1" xmlns="http://www.w3.org/2000/svg" width="400" height="400" viewBox="0, 0, 400,400">
    <path id="path0" d="M141.400 80.420 C 136.120 80.616,130.720 80.978,129.400 81.225 C 128.080 81.471,126.190 81.818,125.200 81.994 C 124.210 82.170,120.438 82.534,116.818 82.802 C 112.864 83.094,109.909 83.499,109.418 83.815 C 108.968 84.104,107.880 84.458,107.000 84.601 C 106.120 84.744,104.905 85.049,104.300 85.279 L 103.200 85.697 103.200 200.249 C 103.200 297.070,103.285 314.800,103.749 314.800 C 104.051 314.800,105.713 315.262,107.443 315.827 C 109.757 316.582,112.363 317.003,117.315 317.421 C 121.015 317.734,125.092 318.261,126.375 318.594 C 134.222 320.627,187.422 320.641,193.169 318.612 C 194.141 318.268,197.723 317.720,201.127 317.394 C 204.531 317.068,207.537 316.618,207.807 316.394 C 208.076 316.171,209.857 315.647,211.764 315.230 C 213.671 314.813,215.493 314.255,215.814 313.988 C 216.135 313.722,217.793 313.244,219.499 312.925 C 221.204 312.606,223.000 312.086,223.489 311.771 C 223.977 311.455,225.327 310.998,226.489 310.754 C 227.650 310.511,228.960 309.994,229.400 309.606 C 229.840 309.217,230.920 308.669,231.800 308.389 C 232.680 308.108,233.760 307.652,234.200 307.374 C 234.640 307.096,235.810 306.643,236.800 306.366 C 237.790 306.089,238.933 305.578,239.340 305.231 C 240.077 304.603,241.953 303.561,245.000 302.087 C 246.996 301.121,249.458 299.500,250.907 298.196 C 251.516 297.648,252.236 297.193,252.507 297.184 C 252.778 297.175,253.623 296.635,254.385 295.984 C 255.147 295.333,255.931 294.800,256.127 294.800 C 256.324 294.800,256.839 294.350,257.271 293.800 C 257.704 293.250,258.246 292.800,258.475 292.800 C 258.704 292.800,259.366 292.334,259.946 291.765 C 260.526 291.195,262.800 288.973,265.000 286.828 C 270.084 281.868,272.800 278.961,272.800 278.478 C 272.800 278.269,273.077 277.868,273.415 277.587 C 273.754 277.306,275.009 275.591,276.205 273.775 C 277.401 271.959,278.539 270.412,278.733 270.337 C 278.928 270.262,279.479 269.390,279.957 268.400 C 281.388 265.435,282.073 264.259,283.061 263.069 C 283.577 262.447,284.000 261.617,284.000 261.223 C 284.000 260.830,284.378 260.027,284.840 259.440 C 285.302 258.853,285.920 257.461,286.214 256.346 C 286.508 255.231,287.013 254.023,287.335 253.660 C 287.657 253.297,288.149 252.190,288.429 251.200 C 288.708 250.210,289.243 249.040,289.618 248.600 C 290.001 248.151,290.492 246.482,290.737 244.800 C 290.977 243.150,291.515 241.135,291.933 240.322 C 292.350 239.508,292.819 237.722,292.974 236.351 C 293.129 234.980,293.595 233.195,294.009 232.383 C 294.478 231.462,294.926 229.268,295.197 226.553 C 295.436 224.159,295.920 219.950,296.273 217.200 C 297.176 210.161,297.172 189.689,296.266 183.000 C 295.909 180.360,295.430 176.174,295.201 173.698 C 294.927 170.738,294.522 168.682,294.017 167.698 C 293.594 166.874,293.076 164.916,292.864 163.346 C 292.652 161.776,292.199 160.065,291.858 159.545 C 291.517 159.024,291.032 157.249,290.779 155.599 C 290.527 153.950,290.067 152.315,289.759 151.967 C 289.450 151.619,288.896 150.450,288.528 149.370 C 288.160 148.290,287.549 146.865,287.171 146.203 C 286.792 145.541,286.359 144.550,286.209 144.000 C 285.769 142.390,283.217 137.312,282.582 136.785 C 282.262 136.519,282.000 136.079,282.000 135.807 C 282.000 135.534,281.524 134.612,280.942 133.756 C 280.360 132.900,279.721 131.615,279.523 130.900 C 279.324 130.184,278.897 129.600,278.573 129.600 C 278.248 129.600,277.763 129.105,277.495 128.500 C 276.999 127.382,274.869 124.301,273.823 123.189 C 273.507 122.853,273.062 122.088,272.834 121.489 C 272.606 120.890,272.166 120.400,271.856 120.400 C 271.546 120.400,270.980 119.924,270.599 119.342 C 269.860 118.215,261.620 110.004,259.728 108.509 C 259.108 108.019,258.007 107.093,257.283 106.450 C 256.559 105.807,254.956 104.678,253.722 103.941 C 252.488 103.203,251.101 102.233,250.639 101.784 C 249.595 100.768,245.873 98.400,245.321 98.400 C 245.096 98.400,244.252 97.952,243.445 97.405 C 242.639 96.858,241.530 96.297,240.980 96.159 C 240.431 96.021,239.755 95.586,239.479 95.191 C 239.202 94.796,237.950 94.175,236.695 93.811 C 235.441 93.446,234.314 92.984,234.191 92.785 C 234.067 92.585,233.209 92.223,232.283 91.980 C 231.357 91.737,229.970 91.115,229.200 90.597 C 228.430 90.079,227.080 89.529,226.200 89.374 C 225.320 89.219,223.970 88.780,223.200 88.398 C 222.430 88.017,220.691 87.513,219.336 87.279 C 217.980 87.044,216.029 86.469,214.998 85.999 C 213.968 85.530,212.191 84.994,211.050 84.808 C 209.909 84.622,208.350 84.193,207.587 83.854 C 206.823 83.515,203.365 82.964,199.891 82.628 C 196.421 82.293,193.217 81.823,192.772 81.585 C 190.577 80.411,160.236 79.723,141.400 80.420 M181.400 107.531 C 182.720 107.758,186.140 108.155,189.000 108.413 C 192.400 108.720,194.699 109.132,195.640 109.604 C 196.432 110.000,198.632 110.514,200.529 110.746 C 202.426 110.979,204.482 111.429,205.097 111.747 C 205.713 112.065,207.243 112.515,208.497 112.747 C 209.752 112.979,211.636 113.626,212.686 114.184 C 213.735 114.743,214.776 115.200,215.000 115.200 C 215.224 115.200,216.215 115.630,217.203 116.155 C 218.191 116.680,219.765 117.339,220.700 117.618 C 221.635 117.898,222.400 118.287,222.400 118.484 C 222.400 118.680,222.985 119.099,223.700 119.415 C 224.415 119.731,225.540 120.441,226.200 120.993 C 226.860 121.545,227.570 121.997,227.778 121.998 C 228.263 122.001,230.981 123.822,232.837 125.388 C 236.394 128.389,239.399 131.060,239.974 131.730 C 240.318 132.132,241.050 132.942,241.600 133.530 C 243.547 135.615,245.600 138.289,245.600 138.741 C 245.600 138.994,245.789 139.200,246.020 139.200 C 246.252 139.200,246.707 139.838,247.033 140.617 C 247.359 141.397,247.903 142.141,248.242 142.272 C 248.840 142.501,249.696 143.957,251.766 148.263 C 252.311 149.398,252.933 150.435,253.148 150.568 C 253.363 150.701,253.655 151.339,253.797 151.986 C 253.939 152.633,254.431 153.640,254.890 154.224 C 255.349 154.807,255.962 156.211,256.252 157.342 C 257.050 160.453,258.785 165.670,259.404 166.822 C 259.706 167.384,260.319 169.904,260.766 172.422 C 261.213 174.940,261.781 177.810,262.027 178.800 C 263.222 183.595,262.867 220.346,261.597 223.298 C 261.383 223.794,260.937 226.076,260.605 228.368 C 260.272 230.661,259.756 232.821,259.457 233.168 C 259.159 233.516,258.606 235.057,258.229 236.592 C 257.853 238.128,257.364 239.603,257.142 239.870 C 256.921 240.136,256.476 241.486,256.153 242.870 C 255.830 244.253,255.237 245.748,254.836 246.192 C 254.434 246.636,253.978 247.540,253.823 248.200 C 253.668 248.860,253.223 249.760,252.835 250.200 C 252.447 250.640,251.882 251.630,251.579 252.400 C 250.962 253.970,249.669 256.100,248.421 257.600 C 247.964 258.150,246.822 259.770,245.883 261.200 C 243.233 265.238,237.089 271.747,233.900 273.896 C 233.075 274.452,232.400 275.072,232.400 275.274 C 232.400 275.476,231.770 275.904,231.000 276.226 C 230.230 276.548,229.600 276.976,229.600 277.178 C 229.600 277.381,229.195 277.671,228.700 277.824 C 228.205 277.976,226.966 278.708,225.946 279.451 C 224.927 280.193,223.920 280.800,223.708 280.800 C 223.497 280.800,223.017 281.139,222.642 281.554 C 222.267 281.968,221.162 282.531,220.188 282.803 C 219.213 283.076,218.219 283.536,217.980 283.824 C 217.741 284.113,216.972 284.473,216.272 284.626 C 215.573 284.779,214.064 285.402,212.919 286.012 C 211.774 286.621,209.893 287.250,208.738 287.409 C 207.583 287.567,205.999 288.022,205.219 288.420 C 204.439 288.817,202.540 289.268,201.000 289.422 C 199.460 289.576,197.544 290.033,196.742 290.438 C 195.940 290.842,193.600 291.361,191.542 291.590 C 189.484 291.820,185.337 292.295,182.326 292.647 C 177.771 293.180,173.878 293.250,159.126 293.064 C 139.796 292.821,136.628 292.569,135.510 291.189 C 134.835 290.354,134.800 285.922,134.800 200.025 L 134.800 109.739 135.700 108.922 C 136.640 108.068,138.313 107.801,146.600 107.183 C 152.181 106.768,178.487 107.030,181.400 107.531 " stroke="none" fill="#f5f9fc" fill-rule="evenodd"></path><path id="path1" d="M23.600 0.600 C 23.600 1.038,23.142 1.202,21.900 1.206 C 20.018 1.213,18.958 1.684,19.360 2.335 C 19.635 2.780,18.265 3.731,17.890 3.356 C 17.571 3.038,15.295 4.301,14.893 5.019 C 14.703 5.360,14.141 5.669,13.646 5.707 C 13.010 5.754,12.681 6.095,12.527 6.865 C 12.365 7.676,12.038 7.987,11.254 8.078 C 10.513 8.164,10.162 8.467,10.072 9.100 C 10.002 9.595,9.777 10.023,9.572 10.050 C 9.367 10.078,8.975 10.123,8.700 10.150 C 8.425 10.178,8.145 10.674,8.078 11.254 C 7.987 12.038,7.676 12.365,6.865 12.527 C 6.095 12.681,5.754 13.010,5.707 13.646 C 5.669 14.141,5.360 14.703,5.019 14.893 C 4.301 15.295,3.038 17.571,3.356 17.890 C 3.731 18.265,2.780 19.635,2.335 19.360 C 1.684 18.958,1.213 20.018,1.206 21.900 C 1.202 23.142,1.038 23.600,0.600 23.600 C 0.068 23.600,0.000 43.467,0.000 200.000 C 0.000 356.533,0.068 376.400,0.600 376.400 C 1.031 376.400,1.200 376.841,1.200 377.967 C 1.200 380.051,1.529 380.800,2.443 380.800 C 3.125 380.800,3.388 381.232,3.243 382.112 C 3.153 382.659,4.378 384.748,4.989 385.090 C 5.312 385.271,5.644 385.865,5.726 386.410 C 5.834 387.128,6.160 387.434,6.913 387.524 C 7.704 387.619,7.981 387.905,8.076 388.724 C 8.164 389.487,8.461 389.837,9.100 389.928 C 9.694 390.012,10.000 390.330,10.000 390.863 C 10.000 391.389,10.411 391.825,11.183 392.116 C 11.877 392.378,12.414 392.901,12.483 393.381 C 12.563 393.940,12.949 394.240,13.700 394.327 C 14.305 394.396,14.800 394.624,14.800 394.832 C 14.800 395.406,17.276 396.797,18.300 396.799 C 18.916 396.800,19.200 397.039,19.200 397.557 C 19.200 398.471,19.949 398.800,22.033 398.800 C 23.159 398.800,23.600 398.969,23.600 399.400 C 23.600 399.932,43.467 400.000,200.000 400.000 C 356.533 400.000,376.400 399.932,376.400 399.400 C 376.400 398.969,376.841 398.800,377.967 398.800 C 380.051 398.800,380.800 398.471,380.800 397.557 C 380.800 397.039,381.084 396.800,381.700 396.799 C 382.724 396.797,385.200 395.406,385.200 394.832 C 385.200 394.624,385.695 394.396,386.300 394.327 C 387.051 394.240,387.437 393.940,387.517 393.381 C 387.586 392.901,388.123 392.378,388.817 392.116 C 389.607 391.818,390.000 391.392,390.000 390.835 C 390.000 390.255,390.255 390.000,390.835 390.000 C 391.392 390.000,391.818 389.607,392.116 388.817 C 392.378 388.123,392.901 387.586,393.381 387.517 C 393.940 387.437,394.240 387.051,394.327 386.300 C 394.396 385.695,394.624 385.200,394.832 385.200 C 395.406 385.200,396.797 382.724,396.799 381.700 C 396.800 381.084,397.039 380.800,397.557 380.800 C 398.471 380.800,398.800 380.051,398.800 377.967 C 398.800 376.841,398.969 376.400,399.400 376.400 C 399.932 376.400,400.000 356.533,400.000 200.000 C 400.000 43.467,399.932 23.600,399.400 23.600 C 398.969 23.600,398.800 23.159,398.800 22.033 C 398.800 19.949,398.471 19.200,397.557 19.200 C 397.039 19.200,396.800 18.916,396.799 18.300 C 396.797 17.276,395.406 14.800,394.832 14.800 C 394.624 14.800,394.396 14.305,394.327 13.700 C 394.240 12.949,393.940 12.563,393.381 12.483 C 392.901 12.414,392.378 11.877,392.116 11.183 C 391.825 10.411,391.389 10.000,390.863 10.000 C 390.330 10.000,390.012 9.694,389.928 9.100 C 389.837 8.461,389.487 8.164,388.724 8.076 C 387.905 7.981,387.619 7.704,387.524 6.913 C 387.434 6.160,387.128 5.834,386.410 5.726 C 385.865 5.644,385.271 5.312,385.090 4.989 C 384.748 4.378,382.659 3.153,382.112 3.243 C 381.232 3.388,380.800 3.125,380.800 2.443 C 380.800 1.529,380.051 1.200,377.967 1.200 C 376.841 1.200,376.400 1.031,376.400 0.600 C 376.400 0.068,356.533 0.000,200.000 0.000 C 43.467 0.000,23.600 0.068,23.600 0.600 M174.400 77.557 C 178.362 77.763,180.580 78.056,181.400 78.481 C 182.287 78.942,184.845 79.212,191.200 79.516 C 197.045 79.797,200.377 80.130,201.600 80.558 C 202.590 80.904,204.930 81.383,206.800 81.623 C 208.863 81.889,210.611 82.352,211.245 82.802 C 211.820 83.210,213.543 83.717,215.074 83.929 C 216.604 84.141,218.654 84.674,219.628 85.113 C 220.603 85.552,222.342 86.038,223.492 86.192 C 224.643 86.347,225.993 86.789,226.492 87.176 C 226.992 87.562,227.940 88.006,228.600 88.163 C 229.260 88.320,230.430 88.859,231.200 89.360 C 231.970 89.861,233.408 90.399,234.396 90.556 C 235.383 90.712,236.553 91.169,236.996 91.571 C 237.438 91.973,238.459 92.512,239.265 92.770 C 240.070 93.028,240.822 93.481,240.936 93.778 C 241.050 94.074,242.042 94.615,243.141 94.980 C 244.239 95.345,245.354 95.903,245.617 96.220 C 245.880 96.537,246.820 97.014,247.706 97.279 C 248.647 97.561,249.395 98.061,249.505 98.481 C 249.609 98.876,249.929 99.200,250.216 99.200 C 250.503 99.200,251.247 99.625,251.869 100.144 C 252.491 100.663,253.595 101.392,254.321 101.765 C 255.048 102.138,255.993 102.793,256.421 103.221 C 256.850 103.650,257.350 104.000,257.532 104.000 C 257.715 104.000,258.098 104.436,258.384 104.970 C 258.669 105.503,259.313 106.042,259.815 106.168 C 260.316 106.294,261.718 107.343,262.928 108.498 C 264.139 109.654,266.091 111.517,267.265 112.639 C 270.841 116.053,274.000 119.740,274.000 120.499 C 274.000 120.894,274.430 121.413,274.956 121.653 C 275.482 121.892,276.108 122.518,276.347 123.044 C 276.587 123.570,276.945 124.000,277.142 124.000 C 277.340 124.000,277.889 124.900,278.362 126.000 C 278.835 127.100,279.401 128.000,279.620 128.000 C 279.838 128.000,280.236 128.495,280.502 129.100 C 280.769 129.705,281.300 130.432,281.682 130.714 C 282.064 130.997,282.589 131.940,282.850 132.808 C 283.110 133.677,283.655 134.688,284.061 135.056 C 284.468 135.423,284.800 135.935,284.800 136.193 C 284.800 136.452,285.324 137.459,285.964 138.431 C 286.604 139.404,287.330 140.965,287.579 141.900 C 287.827 142.835,288.186 143.600,288.376 143.600 C 288.801 143.600,289.600 145.807,289.600 146.982 C 289.600 147.456,290.048 148.452,290.595 149.194 C 291.143 149.935,291.710 151.185,291.856 151.971 C 292.003 152.757,292.449 154.030,292.847 154.800 C 293.246 155.570,293.764 157.894,293.997 159.964 C 294.265 162.336,294.634 163.889,294.995 164.164 C 295.651 164.663,296.376 167.513,296.390 169.648 C 296.396 170.444,296.748 172.187,297.174 173.520 C 299.420 180.548,299.459 219.471,297.229 226.600 C 296.816 227.920,296.365 230.260,296.226 231.800 C 296.063 233.621,295.702 234.976,295.194 235.675 C 294.665 236.403,294.280 237.928,293.999 240.405 C 293.762 242.505,293.248 244.722,292.793 245.614 C 292.357 246.469,292.000 247.504,292.000 247.915 C 292.000 248.327,291.481 249.459,290.847 250.431 C 290.213 251.404,289.575 253.034,289.430 254.054 C 289.284 255.074,288.831 256.210,288.422 256.580 C 288.013 256.950,287.562 257.875,287.420 258.636 C 287.277 259.396,286.629 260.806,285.980 261.767 C 285.331 262.729,284.800 263.715,284.800 263.958 C 284.800 264.201,284.481 264.719,284.090 265.110 C 283.700 265.500,283.154 266.577,282.876 267.503 C 282.599 268.429,282.018 269.376,281.586 269.608 C 281.154 269.839,280.800 270.294,280.800 270.618 C 280.800 270.942,280.427 271.521,279.972 271.904 C 279.517 272.287,278.812 273.320,278.406 274.200 C 278.000 275.080,276.916 276.610,275.998 277.600 C 275.079 278.590,274.111 279.811,273.846 280.314 C 273.274 281.397,270.125 284.962,267.600 287.385 C 263.734 291.095,260.402 294.000,260.013 294.000 C 259.789 294.000,259.125 294.540,258.537 295.200 C 257.949 295.860,257.337 296.400,257.176 296.400 C 257.016 296.400,256.307 296.940,255.600 297.600 C 254.893 298.260,254.135 298.800,253.915 298.800 C 253.695 298.800,252.981 299.250,252.327 299.800 C 251.673 300.350,250.903 300.800,250.615 300.800 C 250.327 300.800,249.812 301.228,249.469 301.751 C 249.126 302.274,248.355 302.825,247.755 302.976 C 247.154 303.126,246.220 303.598,245.678 304.025 C 245.136 304.451,244.444 304.800,244.141 304.800 C 243.504 304.800,242.153 305.511,241.000 306.454 C 240.560 306.814,239.750 307.239,239.200 307.400 C 238.650 307.561,237.831 308.029,237.379 308.441 C 236.928 308.853,235.643 309.364,234.525 309.576 C 233.407 309.788,231.816 310.420,230.990 310.981 C 230.164 311.541,229.146 312.000,228.728 312.000 C 228.310 312.000,227.480 312.359,226.884 312.798 C 226.288 313.236,224.720 313.788,223.400 314.024 C 222.080 314.261,220.280 314.795,219.400 315.213 C 218.520 315.630,216.720 316.091,215.400 316.237 C 214.080 316.383,212.406 316.859,211.680 317.296 C 210.954 317.733,208.794 318.329,206.880 318.622 C 204.966 318.914,202.432 319.430,201.249 319.767 C 199.921 320.146,196.398 320.484,192.049 320.648 C 186.530 320.857,184.479 321.092,182.600 321.730 C 178.108 323.255,143.600 323.109,140.720 321.553 C 140.117 321.226,136.630 320.950,130.600 320.751 C 120.018 320.401,117.304 320.168,114.800 319.394 C 113.810 319.088,111.421 318.642,109.490 318.402 C 105.938 317.962,102.741 316.693,101.700 315.311 C 101.303 314.783,101.200 291.118,101.200 200.105 L 101.200 85.564 102.182 84.582 C 102.722 84.042,103.473 83.600,103.850 83.600 C 104.228 83.600,104.854 83.313,105.242 82.962 C 105.658 82.585,107.560 82.085,109.874 81.743 C 112.033 81.424,114.700 80.893,115.800 80.563 C 117.203 80.142,121.265 79.844,129.400 79.564 C 138.324 79.257,141.413 79.015,142.791 78.514 C 145.752 77.440,162.433 76.934,174.400 77.557 M137.100 109.862 C 136.187 110.119,135.988 289.686,136.900 290.276 C 138.208 291.123,189.696 290.583,191.839 289.700 C 192.960 289.238,195.390 288.638,197.239 288.366 C 199.087 288.094,200.897 287.619,201.260 287.310 C 201.622 287.002,203.422 286.492,205.260 286.178 C 207.097 285.863,209.230 285.266,210.000 284.852 C 210.770 284.437,212.120 283.971,213.000 283.817 C 213.880 283.662,214.960 283.219,215.400 282.832 C 215.840 282.446,216.830 281.891,217.600 281.599 C 218.370 281.307,219.270 280.845,219.600 280.571 C 219.930 280.298,220.962 279.872,221.893 279.624 C 222.824 279.376,223.769 278.831,223.993 278.414 C 224.216 277.996,224.804 277.527,225.300 277.371 C 225.795 277.215,226.826 276.572,227.591 275.943 C 228.356 275.315,229.203 274.800,229.473 274.800 C 229.743 274.800,230.403 274.395,230.940 273.900 C 231.477 273.405,232.855 272.190,234.001 271.200 C 235.148 270.210,236.832 268.595,237.743 267.611 C 238.654 266.627,240.030 265.160,240.800 264.350 C 241.570 263.540,242.560 262.398,243.000 261.811 C 243.440 261.224,244.295 260.190,244.900 259.513 C 245.505 258.835,246.000 258.064,246.000 257.799 C 246.000 257.534,246.417 256.866,246.928 256.316 C 247.438 255.765,248.106 254.704,248.413 253.957 C 248.720 253.211,249.382 251.990,249.885 251.244 C 250.388 250.498,250.800 249.650,250.800 249.358 C 250.800 249.067,251.145 248.644,251.566 248.418 C 252.053 248.158,252.496 247.243,252.782 245.909 C 253.030 244.755,253.492 243.414,253.809 242.931 C 254.126 242.447,254.575 241.184,254.806 240.125 C 255.038 239.066,255.576 237.720,256.001 237.134 C 256.426 236.548,256.966 234.862,257.202 233.389 C 257.437 231.915,257.957 230.055,258.357 229.255 C 258.886 228.198,259.217 226.018,259.569 221.283 C 259.835 217.698,260.334 213.738,260.679 212.483 C 261.590 209.159,261.594 191.234,260.684 187.800 C 260.334 186.480,259.834 182.430,259.572 178.800 C 259.214 173.856,258.917 171.899,258.387 171.000 C 257.997 170.340,257.493 168.583,257.265 167.096 C 257.028 165.544,256.514 163.963,256.059 163.384 C 255.623 162.830,255.138 161.618,254.981 160.690 C 254.825 159.763,254.366 158.388,253.963 157.635 C 253.559 156.882,253.030 155.306,252.786 154.133 C 252.521 152.856,252.131 152.000,251.815 152.000 C 251.525 152.000,250.982 151.325,250.609 150.500 C 249.159 147.296,246.157 142.315,244.881 141.000 C 244.455 140.560,243.938 139.882,243.734 139.494 C 243.159 138.404,240.074 134.945,237.200 132.168 C 235.770 130.787,234.050 129.104,233.378 128.428 C 232.706 127.753,231.951 127.200,231.701 127.200 C 231.450 127.200,231.010 126.866,230.723 126.458 C 230.435 126.049,229.435 125.326,228.500 124.849 C 227.565 124.373,226.800 123.821,226.800 123.623 C 226.800 123.424,226.179 123.057,225.419 122.806 C 224.660 122.556,223.932 122.016,223.802 121.608 C 223.648 121.122,223.023 120.773,221.995 120.599 C 221.131 120.453,219.985 119.989,219.449 119.567 C 218.913 119.145,218.268 118.800,218.017 118.800 C 217.422 118.800,215.180 117.637,214.539 116.996 C 214.264 116.721,213.364 116.370,212.538 116.215 C 211.713 116.060,210.399 115.608,209.619 115.211 C 208.838 114.814,206.850 114.282,205.200 114.029 C 203.550 113.776,201.519 113.215,200.688 112.784 C 199.856 112.353,198.506 111.997,197.688 111.994 C 195.758 111.986,191.219 110.914,190.465 110.287 C 189.878 109.800,138.767 109.392,137.100 109.862 " stroke="none" fill="#047cfc" fill-rule="evenodd"></path><path id="path2" d="M150.191 77.596 C 146.642 77.766,143.925 78.103,142.791 78.514 C 141.413 79.015,138.324 79.257,129.400 79.564 C 121.265 79.844,117.203 80.142,115.800 80.563 C 114.700 80.893,112.033 81.424,109.874 81.743 C 107.560 82.085,105.658 82.585,105.242 82.962 C 104.854 83.313,104.228 83.600,103.850 83.600 C 103.473 83.600,102.722 84.042,102.182 84.582 L 101.200 85.564 101.200 200.105 C 101.200 291.118,101.303 314.783,101.700 315.311 C 102.741 316.693,105.938 317.962,109.490 318.402 C 111.421 318.642,113.810 319.088,114.800 319.394 C 117.304 320.168,120.018 320.401,130.600 320.751 C 136.630 320.950,140.117 321.226,140.720 321.553 C 143.600 323.109,178.108 323.255,182.600 321.730 C 184.479 321.092,186.530 320.857,192.049 320.648 C 196.398 320.484,199.921 320.146,201.249 319.767 C 202.432 319.430,204.966 318.914,206.880 318.622 C 208.794 318.329,210.954 317.733,211.680 317.296 C 212.406 316.859,214.080 316.383,215.400 316.237 C 216.720 316.091,218.520 315.630,219.400 315.213 C 220.280 314.795,222.080 314.261,223.400 314.024 C 224.720 313.788,226.288 313.236,226.884 312.798 C 227.480 312.359,228.310 312.000,228.728 312.000 C 229.146 312.000,230.164 311.541,230.990 310.981 C 231.816 310.420,233.407 309.788,234.525 309.576 C 235.643 309.364,236.928 308.853,237.379 308.441 C 237.831 308.029,238.650 307.561,239.200 307.400 C 239.750 307.239,240.560 306.814,241.000 306.454 C 242.153 305.511,243.504 304.800,244.141 304.800 C 244.444 304.800,245.136 304.451,245.678 304.025 C 246.220 303.598,247.154 303.126,247.755 302.976 C 248.355 302.825,249.126 302.274,249.469 301.751 C 249.812 301.228,250.327 300.800,250.615 300.800 C 250.903 300.800,251.673 300.350,252.327 299.800 C 252.981 299.250,253.695 298.800,253.915 298.800 C 254.135 298.800,254.893 298.260,255.600 297.600 C 256.307 296.940,257.016 296.400,257.176 296.400 C 257.337 296.400,257.949 295.860,258.537 295.200 C 259.125 294.540,259.789 294.000,260.013 294.000 C 260.402 294.000,263.734 291.095,267.600 287.385 C 270.125 284.962,273.274 281.397,273.846 280.314 C 274.111 279.811,275.079 278.590,275.998 277.600 C 276.916 276.610,278.000 275.080,278.406 274.200 C 278.812 273.320,279.517 272.287,279.972 271.904 C 280.427 271.521,280.800 270.942,280.800 270.618 C 280.800 270.294,281.154 269.839,281.586 269.608 C 282.018 269.376,282.599 268.429,282.876 267.503 C 283.154 266.577,283.700 265.500,284.090 265.110 C 284.481 264.719,284.800 264.201,284.800 263.958 C 284.800 263.715,285.331 262.729,285.980 261.767 C 286.629 260.806,287.277 259.396,287.420 258.636 C 287.562 257.875,288.013 256.950,288.422 256.580 C 288.831 256.210,289.284 255.074,289.430 254.054 C 289.575 253.034,290.213 251.404,290.847 250.431 C 291.481 249.459,292.000 248.327,292.000 247.915 C 292.000 247.504,292.357 246.469,292.793 245.614 C 293.248 244.722,293.762 242.505,293.999 240.405 C 294.280 237.928,294.665 236.403,295.194 235.675 C 295.702 234.976,296.063 233.621,296.226 231.800 C 296.365 230.260,296.816 227.920,297.229 226.600 C 299.459 219.471,299.420 180.548,297.174 173.520 C 296.748 172.187,296.396 170.444,296.390 169.648 C 296.376 167.513,295.651 164.663,294.995 164.164 C 294.634 163.889,294.265 162.336,293.997 159.964 C 293.764 157.894,293.246 155.570,292.847 154.800 C 292.449 154.030,292.003 152.757,291.856 151.971 C 291.710 151.185,291.143 149.935,290.595 149.194 C 290.048 148.452,289.600 147.456,289.600 146.982 C 289.600 145.807,288.801 143.600,288.376 143.600 C 288.186 143.600,287.827 142.835,287.579 141.900 C 287.330 140.965,286.604 139.404,285.964 138.431 C 285.324 137.459,284.800 136.452,284.800 136.193 C 284.800 135.935,284.468 135.423,284.061 135.056 C 283.655 134.688,283.110 133.677,282.850 132.808 C 282.589 131.940,282.064 130.997,281.682 130.714 C 281.300 130.432,280.769 129.705,280.502 129.100 C 280.236 128.495,279.838 128.000,279.620 128.000 C 279.401 128.000,278.835 127.100,278.362 126.000 C 277.889 124.900,277.340 124.000,277.142 124.000 C 276.945 124.000,276.587 123.570,276.347 123.044 C 276.108 122.518,275.482 121.892,274.956 121.653 C 274.430 121.413,274.000 120.894,274.000 120.499 C 274.000 119.740,270.841 116.053,267.265 112.639 C 266.091 111.517,264.139 109.654,262.928 108.498 C 261.718 107.343,260.316 106.294,259.815 106.168 C 259.313 106.042,258.669 105.503,258.384 104.970 C 258.098 104.436,257.715 104.000,257.532 104.000 C 257.350 104.000,256.850 103.650,256.421 103.221 C 255.993 102.793,255.048 102.138,254.321 101.765 C 253.595 101.392,252.491 100.663,251.869 100.144 C 251.247 99.625,250.503 99.200,250.216 99.200 C 249.929 99.200,249.609 98.876,249.505 98.481 C 249.395 98.061,248.647 97.561,247.706 97.279 C 246.820 97.014,245.880 96.537,245.617 96.220 C 245.354 95.903,244.239 95.345,243.141 94.980 C 242.042 94.615,241.050 94.074,240.936 93.778 C 240.822 93.481,240.070 93.028,239.265 92.770 C 238.459 92.512,237.438 91.973,236.996 91.571 C 236.553 91.169,235.383 90.712,234.396 90.556 C 233.408 90.399,231.970 89.861,231.200 89.360 C 230.430 88.859,229.260 88.320,228.600 88.163 C 227.940 88.006,226.992 87.562,226.492 87.176 C 225.993 86.789,224.643 86.347,223.492 86.192 C 222.342 86.038,220.603 85.552,219.628 85.113 C 218.654 84.674,216.604 84.141,215.074 83.929 C 213.543 83.717,211.820 83.210,211.245 82.802 C 210.611 82.352,208.863 81.889,206.800 81.623 C 204.930 81.383,202.590 80.904,201.600 80.558 C 200.377 80.130,197.045 79.797,191.200 79.516 C 184.845 79.212,182.287 78.942,181.400 78.481 C 179.294 77.388,163.758 76.947,150.191 77.596 M177.600 78.967 C 180.130 79.305,185.194 79.765,188.853 79.990 C 192.512 80.215,197.192 80.741,199.253 81.159 C 201.314 81.577,204.170 82.046,205.600 82.202 C 207.030 82.357,209.010 82.815,210.000 83.219 C 210.990 83.623,212.873 84.165,214.184 84.423 C 215.495 84.681,216.935 85.128,217.384 85.417 C 217.833 85.706,219.370 86.148,220.800 86.401 C 223.350 86.850,226.219 87.895,230.200 89.824 C 231.300 90.357,232.724 90.911,233.364 91.056 C 234.004 91.200,235.264 91.740,236.164 92.255 C 237.064 92.769,238.115 93.193,238.500 93.195 C 238.885 93.198,239.549 93.549,239.975 93.975 C 240.401 94.401,242.426 95.582,244.475 96.600 C 248.168 98.434,250.234 99.734,251.826 101.226 C 252.280 101.652,252.773 102.000,252.921 102.000 C 253.386 102.000,257.600 104.954,257.600 105.280 C 257.600 105.450,258.288 106.024,259.129 106.555 C 260.523 107.435,267.256 113.570,268.769 115.338 C 269.116 115.744,270.269 117.004,271.331 118.138 C 272.392 119.272,273.517 120.686,273.830 121.280 C 274.144 121.874,274.637 122.504,274.927 122.680 C 275.555 123.061,278.000 126.586,278.000 127.110 C 278.000 127.311,278.352 127.794,278.781 128.183 C 279.211 128.572,280.308 130.175,281.218 131.745 C 282.128 133.315,283.041 134.870,283.245 135.200 C 283.450 135.530,283.928 136.431,284.309 137.202 C 284.689 137.973,285.383 139.233,285.851 140.002 C 286.320 140.771,286.909 142.045,287.160 142.833 C 287.412 143.621,287.974 144.964,288.409 145.817 C 288.844 146.671,289.201 147.646,289.201 147.985 C 289.202 148.323,289.578 149.216,290.037 149.969 C 291.081 151.681,293.159 158.574,293.640 161.918 C 293.839 163.302,294.340 165.102,294.754 165.918 C 295.167 166.733,295.712 169.020,295.965 171.000 C 296.217 172.980,296.733 175.950,297.112 177.600 C 297.989 181.425,298.115 218.340,297.263 221.800 C 296.992 222.900,296.506 225.690,296.183 228.000 C 295.860 230.310,295.245 233.024,294.817 234.031 C 294.388 235.037,293.841 237.107,293.601 238.631 C 293.361 240.154,292.723 242.725,292.183 244.346 C 291.642 245.966,291.200 247.558,291.200 247.884 C 291.200 248.210,290.859 248.956,290.441 249.542 C 290.024 250.128,289.486 251.326,289.246 252.204 C 289.006 253.082,288.357 254.686,287.804 255.768 C 287.252 256.850,286.800 258.025,286.800 258.379 C 286.800 258.733,286.485 259.460,286.100 259.995 C 285.336 261.057,284.148 263.194,282.763 266.000 C 281.811 267.931,280.724 269.597,279.374 271.200 C 278.910 271.750,278.031 273.077,277.419 274.150 C 276.808 275.222,275.727 276.752,275.016 277.550 C 274.306 278.347,273.562 279.298,273.362 279.663 C 271.681 282.738,257.475 295.896,253.400 298.152 C 252.740 298.517,251.390 299.440,250.400 300.202 C 249.410 300.965,246.778 302.490,244.551 303.592 C 242.324 304.694,240.277 305.866,240.002 306.198 C 239.727 306.529,239.281 306.800,239.011 306.800 C 238.740 306.800,237.689 307.241,236.675 307.780 C 235.661 308.319,234.061 308.968,233.120 309.222 C 232.178 309.475,230.928 310.024,230.342 310.441 C 229.756 310.859,229.084 311.200,228.850 311.200 C 228.615 311.200,227.424 311.642,226.204 312.181 C 224.983 312.721,222.863 313.377,221.492 313.638 C 220.122 313.900,218.309 314.439,217.465 314.838 C 216.620 315.236,215.090 315.682,214.065 315.830 C 213.039 315.977,211.479 316.421,210.597 316.815 C 209.716 317.209,207.736 317.711,206.197 317.931 C 204.659 318.150,201.240 318.696,198.600 319.143 C 195.960 319.590,190.920 320.142,187.400 320.371 C 183.880 320.599,179.589 321.059,177.865 321.393 C 173.071 322.321,155.082 322.229,146.000 321.229 C 142.150 320.806,135.940 320.343,132.200 320.202 C 128.460 320.060,122.970 319.594,120.000 319.165 C 117.030 318.736,113.099 318.205,111.264 317.984 C 109.429 317.764,107.449 317.342,106.864 317.048 C 106.279 316.753,105.260 316.383,104.600 316.225 C 103.940 316.067,103.085 315.654,102.700 315.307 C 101.787 314.484,101.589 86.252,102.500 85.146 C 103.180 84.321,108.853 82.519,111.800 82.193 C 113.120 82.046,116.450 81.575,119.200 81.145 C 121.950 80.715,128.250 80.180,133.200 79.956 C 138.150 79.732,145.530 79.210,149.600 78.797 C 158.275 77.915,170.252 77.988,177.600 78.967 M149.553 108.797 C 142.597 108.957,136.702 109.213,136.453 109.367 C 136.118 109.574,136.000 133.153,136.000 200.034 L 136.000 290.420 137.100 290.869 C 140.755 292.360,190.490 291.281,195.200 289.608 C 196.410 289.178,197.910 288.820,198.533 288.813 C 199.156 288.806,200.956 288.361,202.533 287.824 C 204.110 287.287,206.570 286.642,208.000 286.390 C 209.430 286.139,210.870 285.695,211.200 285.404 C 211.530 285.113,212.608 284.659,213.596 284.396 C 214.584 284.133,215.872 283.576,216.458 283.159 C 217.044 282.741,217.676 282.399,217.862 282.399 C 218.459 282.397,223.713 279.632,224.571 278.869 C 225.027 278.463,226.480 277.535,227.800 276.806 C 230.515 275.307,235.148 271.577,237.994 268.600 C 241.318 265.124,246.400 259.107,246.400 258.649 C 246.400 258.516,247.030 257.582,247.800 256.573 C 248.570 255.564,249.200 254.542,249.200 254.301 C 249.200 254.060,249.440 253.579,249.734 253.231 C 250.028 252.884,250.514 251.970,250.814 251.200 C 251.114 250.430,251.658 249.583,252.023 249.317 C 252.388 249.051,252.923 247.971,253.213 246.917 C 253.503 245.863,253.964 244.640,254.238 244.200 C 254.513 243.760,255.046 242.320,255.424 241.000 C 255.802 239.680,256.446 237.973,256.855 237.206 C 257.265 236.439,257.600 235.399,257.600 234.894 C 257.600 234.389,258.030 232.946,258.556 231.688 C 259.081 230.430,259.638 228.050,259.794 226.400 C 259.949 224.750,260.509 220.430,261.037 216.800 C 262.426 207.262,262.427 192.830,261.040 183.475 C 260.511 179.914,259.956 175.650,259.806 174.000 C 259.657 172.350,259.193 170.190,258.777 169.200 C 258.360 168.210,257.825 166.500,257.588 165.400 C 257.350 164.300,256.907 163.018,256.602 162.551 C 256.297 162.084,255.773 160.644,255.436 159.351 C 255.099 158.058,254.458 156.287,254.012 155.415 C 253.565 154.544,253.200 153.523,253.200 153.146 C 253.200 152.770,252.780 151.953,252.266 151.331 C 251.752 150.709,250.649 148.850,249.816 147.200 C 248.982 145.550,247.885 143.706,247.378 143.102 C 246.870 142.498,246.341 141.643,246.201 141.202 C 246.061 140.761,245.788 140.400,245.594 140.400 C 245.401 140.400,244.609 139.455,243.835 138.300 C 242.282 135.983,236.776 130.176,234.065 127.995 C 233.111 127.228,231.761 126.129,231.065 125.554 C 230.369 124.979,228.720 123.904,227.400 123.165 C 226.080 122.426,224.730 121.519,224.400 121.149 C 224.070 120.779,222.095 119.721,220.010 118.798 C 217.926 117.875,215.861 116.868,215.421 116.560 C 214.982 116.252,214.329 116.000,213.971 116.000 C 213.612 116.000,212.520 115.575,211.543 115.056 C 210.566 114.536,208.528 113.895,207.013 113.632 C 205.499 113.368,203.647 112.896,202.897 112.583 C 202.148 112.270,200.002 111.726,198.128 111.375 C 196.255 111.024,193.974 110.472,193.061 110.148 C 189.823 108.999,168.961 108.351,149.553 108.797 M190.465 110.287 C 191.219 110.914,195.758 111.986,197.688 111.994 C 198.506 111.997,199.856 112.353,200.688 112.784 C 201.519 113.215,203.550 113.776,205.200 114.029 C 206.850 114.282,208.838 114.814,209.619 115.211 C 210.399 115.608,211.713 116.060,212.538 116.215 C 213.364 116.370,214.264 116.721,214.539 116.996 C 215.180 117.637,217.422 118.800,218.017 118.800 C 218.268 118.800,218.913 119.145,219.449 119.567 C 219.985 119.989,221.131 120.453,221.995 120.599 C 223.023 120.773,223.648 121.122,223.802 121.608 C 223.932 122.016,224.660 122.556,225.419 122.806 C 226.179 123.057,226.800 123.424,226.800 123.623 C 226.800 123.821,227.565 124.373,228.500 124.849 C 229.435 125.326,230.435 126.049,230.723 126.458 C 231.010 126.866,231.450 127.200,231.701 127.200 C 231.951 127.200,232.706 127.753,233.378 128.428 C 234.050 129.104,235.770 130.787,237.200 132.168 C 240.074 134.945,243.159 138.404,243.734 139.494 C 243.938 139.882,244.455 140.560,244.881 141.000 C 246.157 142.315,249.159 147.296,250.609 150.500 C 250.982 151.325,251.525 152.000,251.815 152.000 C 252.131 152.000,252.521 152.856,252.786 154.133 C 253.030 155.306,253.559 156.882,253.963 157.635 C 254.366 158.388,254.825 159.763,254.981 160.690 C 255.138 161.618,255.623 162.830,256.059 163.384 C 256.514 163.963,257.028 165.544,257.265 167.096 C 257.493 168.583,257.997 170.340,258.387 171.000 C 258.917 171.899,259.214 173.856,259.572 178.800 C 259.834 182.430,260.334 186.480,260.684 187.800 C 261.594 191.234,261.590 209.159,260.679 212.483 C 260.334 213.738,259.835 217.698,259.569 221.283 C 259.217 226.018,258.886 228.198,258.357 229.255 C 257.957 230.055,257.437 231.915,257.202 233.389 C 256.966 234.862,256.426 236.548,256.001 237.134 C 255.576 237.720,255.038 239.066,254.806 240.125 C 254.575 241.184,254.126 242.447,253.809 242.931 C 253.492 243.414,253.030 244.755,252.782 245.909 C 252.496 247.243,252.053 248.158,251.566 248.418 C 251.145 248.644,250.800 249.067,250.800 249.358 C 250.800 249.650,250.388 250.498,249.885 251.244 C 249.382 251.990,248.720 253.211,248.413 253.957 C 248.106 254.704,247.438 255.765,246.928 256.316 C 246.417 256.866,246.000 257.534,246.000 257.799 C 246.000 258.064,245.505 258.835,244.900 259.513 C 244.295 260.190,243.440 261.224,243.000 261.811 C 242.560 262.398,241.570 263.540,240.800 264.350 C 240.030 265.160,238.654 266.627,237.743 267.611 C 236.832 268.595,235.148 270.210,234.001 271.200 C 232.855 272.190,231.477 273.405,230.940 273.900 C 230.403 274.395,229.743 274.800,229.473 274.800 C 229.203 274.800,228.356 275.315,227.591 275.943 C 226.826 276.572,225.795 277.215,225.300 277.371 C 224.804 277.527,224.216 277.996,223.993 278.414 C 223.769 278.831,222.824 279.376,221.893 279.624 C 220.962 279.872,219.930 280.298,219.600 280.571 C 219.270 280.845,218.370 281.307,217.600 281.599 C 216.830 281.891,215.840 282.446,215.400 282.832 C 214.960 283.219,213.880 283.662,213.000 283.817 C 212.120 283.971,210.770 284.437,210.000 284.852 C 209.230 285.266,207.097 285.863,205.260 286.178 C 203.422 286.492,201.622 287.002,201.260 287.310 C 200.897 287.619,199.087 288.094,197.239 288.366 C 195.390 288.638,192.960 289.238,191.839 289.700 C 189.696 290.583,138.208 291.123,136.900 290.276 C 135.988 289.686,136.187 110.119,137.100 109.862 C 138.767 109.392,189.878 109.800,190.465 110.287 " stroke="none" fill="#53a5fc" fill-rule="evenodd"></path><path id="path3" d="M150.200 79.227 C 148.440 79.401,142.590 79.745,137.200 79.992 C 131.810 80.239,125.600 80.713,123.400 81.045 C 121.200 81.378,117.150 81.900,114.400 82.207 C 111.650 82.513,108.369 83.132,107.110 83.582 C 105.850 84.032,104.558 84.400,104.239 84.400 C 103.919 84.400,103.374 84.683,103.029 85.029 C 102.179 85.878,102.051 314.428,102.900 315.094 C 103.982 315.943,109.558 317.516,112.400 317.774 C 114.050 317.923,117.663 318.392,120.428 318.816 C 123.194 319.239,129.314 319.774,134.028 320.003 C 138.743 320.232,144.580 320.605,147.000 320.832 C 158.853 321.944,169.572 321.938,178.600 320.815 C 180.360 320.597,184.564 320.227,187.943 319.994 C 191.321 319.761,195.461 319.302,197.143 318.974 C 198.824 318.645,202.136 318.116,204.501 317.798 C 206.867 317.480,209.297 316.966,209.901 316.657 C 210.506 316.348,211.810 315.965,212.800 315.808 C 213.790 315.650,215.410 315.168,216.400 314.736 C 217.390 314.305,219.489 313.705,221.065 313.402 C 222.641 313.099,224.621 312.506,225.465 312.083 C 226.309 311.660,227.529 311.186,228.176 311.030 C 228.822 310.874,229.840 310.399,230.437 309.973 C 231.035 309.548,231.766 309.200,232.062 309.200 C 232.358 309.200,233.741 308.660,235.136 308.000 C 236.531 307.340,237.912 306.800,238.205 306.800 C 238.499 306.800,239.247 306.384,239.869 305.877 C 240.491 305.369,242.440 304.260,244.200 303.412 C 245.960 302.564,248.480 301.097,249.800 300.152 C 251.120 299.208,253.306 297.662,254.658 296.718 C 262.877 290.974,273.641 280.090,277.083 274.041 C 277.659 273.028,278.531 271.750,279.020 271.200 C 279.509 270.650,280.244 269.586,280.654 268.835 C 281.064 268.085,281.884 266.645,282.476 265.635 C 283.067 264.626,283.907 263.055,284.342 262.144 C 284.778 261.233,285.324 260.371,285.557 260.227 C 285.789 260.083,286.236 259.118,286.549 258.083 C 286.863 257.047,287.586 255.210,288.156 254.000 C 288.726 252.790,289.194 251.509,289.196 251.154 C 289.198 250.799,289.537 250.079,289.949 249.554 C 290.742 248.544,292.052 244.179,293.056 239.200 C 293.389 237.550,294.092 235.030,294.619 233.600 C 295.145 232.170,295.691 229.740,295.830 228.200 C 295.970 226.660,296.344 224.140,296.661 222.600 C 298.027 215.971,298.025 184.385,296.659 177.800 C 296.339 176.260,295.953 173.650,295.800 172.000 C 295.647 170.350,295.182 168.218,294.767 167.262 C 294.351 166.307,293.727 164.004,293.378 162.145 C 293.030 160.287,292.398 157.755,291.973 156.520 C 291.548 155.285,291.199 153.988,291.198 153.637 C 291.198 153.287,290.658 151.920,290.000 150.600 C 289.342 149.280,288.802 147.951,288.802 147.647 C 288.801 147.343,288.457 146.533,288.039 145.847 C 287.620 145.161,287.049 143.790,286.770 142.800 C 286.490 141.810,286.023 140.716,285.732 140.369 C 285.440 140.023,284.786 138.943,284.278 137.969 C 283.771 136.996,282.752 135.120,282.015 133.800 C 281.278 132.480,280.453 130.984,280.183 130.477 C 279.912 129.969,279.390 129.249,279.023 128.877 C 278.657 128.504,277.781 127.286,277.078 126.169 C 273.722 120.837,262.736 109.135,258.890 106.796 C 258.219 106.388,257.519 105.817,257.335 105.527 C 256.962 104.941,253.430 102.400,252.987 102.400 C 252.832 102.400,252.103 101.905,251.368 101.300 C 248.760 99.156,247.764 98.521,244.600 96.983 C 242.840 96.128,240.860 95.062,240.200 94.614 C 238.865 93.708,235.718 92.307,232.443 91.159 C 231.257 90.743,230.087 90.241,229.843 90.042 C 228.966 89.326,222.157 86.908,220.200 86.618 C 219.100 86.455,217.523 85.995,216.696 85.595 C 215.869 85.196,214.429 84.742,213.496 84.587 C 212.563 84.431,210.885 83.964,209.767 83.549 C 208.649 83.133,205.769 82.534,203.367 82.218 C 200.965 81.903,197.560 81.378,195.800 81.052 C 194.040 80.726,190.620 80.344,188.200 80.203 C 185.780 80.062,180.931 79.688,177.425 79.373 C 170.711 78.770,155.663 78.689,150.200 79.227 M187.681 80.768 C 190.035 80.979,192.326 81.346,192.772 81.585 C 193.217 81.823,196.421 82.293,199.891 82.628 C 203.365 82.964,206.823 83.515,207.587 83.854 C 208.350 84.193,209.909 84.622,211.050 84.808 C 212.191 84.994,213.968 85.530,214.998 85.999 C 216.029 86.469,217.980 87.044,219.336 87.279 C 220.691 87.513,222.430 88.017,223.200 88.398 C 223.970 88.780,225.320 89.219,226.200 89.374 C 227.080 89.529,228.430 90.079,229.200 90.597 C 229.970 91.115,231.357 91.737,232.283 91.980 C 233.209 92.223,234.067 92.585,234.191 92.785 C 234.314 92.984,235.441 93.446,236.695 93.811 C 237.950 94.175,239.202 94.796,239.479 95.191 C 239.755 95.586,240.431 96.021,240.980 96.159 C 241.530 96.297,242.639 96.858,243.445 97.405 C 244.252 97.952,245.096 98.400,245.321 98.400 C 245.873 98.400,249.595 100.768,250.639 101.784 C 251.101 102.233,252.488 103.203,253.722 103.941 C 254.956 104.678,256.559 105.807,257.283 106.450 C 258.007 107.093,259.108 108.019,259.728 108.509 C 261.620 110.004,269.860 118.215,270.599 119.342 C 270.980 119.924,271.546 120.400,271.856 120.400 C 272.166 120.400,272.606 120.890,272.834 121.489 C 273.062 122.088,273.507 122.853,273.823 123.189 C 274.869 124.301,276.999 127.382,277.495 128.500 C 277.763 129.105,278.248 129.600,278.573 129.600 C 278.897 129.600,279.324 130.184,279.523 130.900 C 279.721 131.615,280.360 132.900,280.942 133.756 C 281.524 134.612,282.000 135.534,282.000 135.807 C 282.000 136.079,282.262 136.519,282.582 136.785 C 283.217 137.312,285.769 142.390,286.209 144.000 C 286.359 144.550,286.792 145.541,287.171 146.203 C 287.549 146.865,288.160 148.290,288.528 149.370 C 288.896 150.450,289.450 151.619,289.759 151.967 C 290.067 152.315,290.527 153.950,290.779 155.599 C 291.032 157.249,291.517 159.024,291.858 159.545 C 292.199 160.065,292.652 161.776,292.864 163.346 C 293.076 164.916,293.594 166.874,294.017 167.698 C 294.522 168.682,294.927 170.738,295.201 173.698 C 295.430 176.174,295.909 180.360,296.266 183.000 C 297.172 189.689,297.176 210.161,296.273 217.200 C 295.920 219.950,295.436 224.159,295.197 226.553 C 294.926 229.268,294.478 231.462,294.009 232.383 C 293.595 233.195,293.129 234.980,292.974 236.351 C 292.819 237.722,292.350 239.508,291.933 240.322 C 291.515 241.135,290.977 243.150,290.737 244.800 C 290.492 246.482,290.001 248.151,289.618 248.600 C 289.243 249.040,288.708 250.210,288.429 251.200 C 288.149 252.190,287.657 253.297,287.335 253.660 C 287.013 254.023,286.508 255.231,286.214 256.346 C 285.920 257.461,285.302 258.853,284.840 259.440 C 284.378 260.027,284.000 260.830,284.000 261.223 C 284.000 261.617,283.577 262.447,283.061 263.069 C 282.073 264.259,281.388 265.435,279.957 268.400 C 279.479 269.390,278.928 270.262,278.733 270.337 C 278.539 270.412,277.401 271.959,276.205 273.775 C 275.009 275.591,273.754 277.306,273.415 277.587 C 273.077 277.868,272.800 278.269,272.800 278.478 C 272.800 278.961,270.084 281.868,265.000 286.828 C 262.800 288.973,260.526 291.195,259.946 291.765 C 259.366 292.334,258.704 292.800,258.475 292.800 C 258.246 292.800,257.704 293.250,257.271 293.800 C 256.839 294.350,256.324 294.800,256.127 294.800 C 255.931 294.800,255.147 295.333,254.385 295.984 C 253.623 296.635,252.778 297.175,252.507 297.184 C 252.236 297.193,251.516 297.648,250.907 298.196 C 249.458 299.500,246.996 301.121,245.000 302.087 C 241.953 303.561,240.077 304.603,239.340 305.231 C 238.933 305.578,237.790 306.089,236.800 306.366 C 235.810 306.643,234.640 307.096,234.200 307.374 C 233.760 307.652,232.680 308.108,231.800 308.389 C 230.920 308.669,229.840 309.217,229.400 309.606 C 228.960 309.994,227.650 310.511,226.489 310.754 C 225.327 310.998,223.977 311.455,223.489 311.771 C 223.000 312.086,221.204 312.606,219.499 312.925 C 217.793 313.244,216.135 313.722,215.814 313.988 C 215.493 314.255,213.671 314.813,211.764 315.230 C 209.857 315.647,208.076 316.171,207.807 316.394 C 207.537 316.618,204.531 317.068,201.127 317.394 C 197.723 317.720,194.141 318.268,193.169 318.612 C 187.422 320.641,134.222 320.627,126.375 318.594 C 125.092 318.261,121.015 317.734,117.315 317.421 C 112.363 317.003,109.757 316.582,107.443 315.827 C 105.713 315.262,104.051 314.800,103.749 314.800 C 103.285 314.800,103.200 297.070,103.200 200.249 L 103.200 85.697 104.300 85.279 C 104.905 85.049,106.120 84.744,107.000 84.601 C 107.880 84.458,108.968 84.104,109.418 83.815 C 109.909 83.499,112.864 83.094,116.818 82.802 C 120.438 82.534,124.210 82.170,125.200 81.994 C 126.190 81.818,128.080 81.471,129.400 81.225 C 135.305 80.120,176.810 79.795,187.681 80.768 M146.600 107.183 C 138.313 107.801,136.640 108.068,135.700 108.922 L 134.800 109.739 134.800 200.025 C 134.800 285.922,134.835 290.354,135.510 291.189 C 136.628 292.569,139.796 292.821,159.126 293.064 C 173.878 293.250,177.771 293.180,182.326 292.647 C 185.337 292.295,189.484 291.820,191.542 291.590 C 193.600 291.361,195.940 290.842,196.742 290.438 C 197.544 290.033,199.460 289.576,201.000 289.422 C 202.540 289.268,204.439 288.817,205.219 288.420 C 205.999 288.022,207.583 287.567,208.738 287.409 C 209.893 287.250,211.774 286.621,212.919 286.012 C 214.064 285.402,215.573 284.779,216.272 284.626 C 216.972 284.473,217.741 284.113,217.980 283.824 C 218.219 283.536,219.213 283.076,220.188 282.803 C 221.162 282.531,222.267 281.968,222.642 281.554 C 223.017 281.139,223.497 280.800,223.708 280.800 C 223.920 280.800,224.927 280.193,225.946 279.451 C 226.966 278.708,228.205 277.976,228.700 277.824 C 229.195 277.671,229.600 277.381,229.600 277.178 C 229.600 276.976,230.230 276.548,231.000 276.226 C 231.770 275.904,232.400 275.476,232.400 275.274 C 232.400 275.072,233.075 274.452,233.900 273.896 C 237.089 271.747,243.233 265.238,245.883 261.200 C 246.822 259.770,247.964 258.150,248.421 257.600 C 249.669 256.100,250.962 253.970,251.579 252.400 C 251.882 251.630,252.447 250.640,252.835 250.200 C 253.223 249.760,253.668 248.860,253.823 248.200 C 253.978 247.540,254.434 246.636,254.836 246.192 C 255.237 245.748,255.830 244.253,256.153 242.870 C 256.476 241.486,256.921 240.136,257.142 239.870 C 257.364 239.603,257.853 238.128,258.229 236.592 C 258.606 235.057,259.159 233.516,259.457 233.168 C 259.756 232.821,260.272 230.661,260.605 228.368 C 260.937 226.076,261.383 223.794,261.597 223.298 C 262.867 220.346,263.222 183.595,262.027 178.800 C 261.781 177.810,261.213 174.940,260.766 172.422 C 260.319 169.904,259.706 167.384,259.404 166.822 C 258.785 165.670,257.050 160.453,256.252 157.342 C 255.962 156.211,255.349 154.807,254.890 154.224 C 254.431 153.640,253.939 152.633,253.797 151.986 C 253.655 151.339,253.363 150.701,253.148 150.568 C 252.933 150.435,252.311 149.398,251.766 148.263 C 249.696 143.957,248.840 142.501,248.242 142.272 C 247.903 142.141,247.359 141.397,247.033 140.617 C 246.707 139.838,246.252 139.200,246.020 139.200 C 245.789 139.200,245.600 138.994,245.600 138.741 C 245.600 138.289,243.547 135.615,241.600 133.530 C 241.050 132.942,240.318 132.132,239.974 131.730 C 239.399 131.060,236.394 128.389,232.837 125.388 C 230.981 123.822,228.263 122.001,227.778 121.998 C 227.570 121.997,226.860 121.545,226.200 120.993 C 225.540 120.441,224.415 119.731,223.700 119.415 C 222.985 119.099,222.400 118.680,222.400 118.484 C 222.400 118.287,221.635 117.898,220.700 117.618 C 219.765 117.339,218.191 116.680,217.203 116.155 C 216.215 115.630,215.224 115.200,215.000 115.200 C 214.776 115.200,213.735 114.743,212.686 114.184 C 211.636 113.626,209.752 112.979,208.497 112.747 C 207.243 112.515,205.713 112.065,205.097 111.747 C 204.482 111.429,202.426 110.979,200.529 110.746 C 198.632 110.514,196.432 110.000,195.640 109.604 C 194.699 109.132,192.400 108.720,189.000 108.413 C 186.140 108.155,182.720 107.758,181.400 107.531 C 178.487 107.030,152.181 106.768,146.600 107.183 M184.600 108.767 C 188.525 109.040,192.005 109.511,193.600 109.985 C 195.030 110.410,197.438 110.954,198.951 111.194 C 200.463 111.435,202.309 111.885,203.052 112.196 C 203.795 112.506,205.527 112.964,206.901 113.213 C 209.203 113.630,211.330 114.432,217.200 117.096 C 221.075 118.856,224.178 120.491,225.000 121.209 C 225.440 121.592,226.430 122.223,227.200 122.610 C 228.530 123.278,229.044 123.628,231.755 125.712 C 236.347 129.242,241.235 134.080,243.818 137.651 C 244.355 138.393,245.067 139.360,245.401 139.800 C 247.953 143.163,249.091 144.917,250.317 147.374 C 251.092 148.928,252.036 150.560,252.413 151.000 C 252.791 151.440,253.406 152.743,253.780 153.895 C 254.155 155.048,254.609 156.082,254.790 156.194 C 254.971 156.306,255.342 157.343,255.614 158.499 C 255.886 159.654,256.429 161.238,256.821 162.019 C 257.213 162.799,257.665 164.149,257.827 165.019 C 257.989 165.888,258.467 167.410,258.890 168.400 C 259.314 169.390,259.916 172.270,260.228 174.800 C 260.541 177.330,261.102 180.930,261.476 182.800 C 262.466 187.747,262.482 212.201,261.499 217.200 C 261.132 219.070,260.568 222.760,260.246 225.400 C 259.924 228.040,259.310 231.017,258.881 232.016 C 258.452 233.015,257.966 234.455,257.801 235.216 C 257.636 235.977,257.095 237.680,256.599 239.000 C 256.103 240.320,255.510 241.940,255.282 242.600 C 254.280 245.498,252.655 249.064,252.002 249.800 C 251.611 250.240,251.156 251.050,250.991 251.600 C 250.825 252.150,250.355 253.029,249.945 253.554 C 249.535 254.079,249.200 254.737,249.200 255.016 C 249.200 255.296,248.615 256.251,247.900 257.138 C 247.185 258.026,246.150 259.409,245.600 260.213 C 241.384 266.370,233.864 273.545,227.707 277.286 C 226.236 278.180,224.821 279.122,224.563 279.379 C 224.130 279.813,221.581 281.111,216.600 283.437 C 211.962 285.602,209.831 286.395,207.528 286.813 C 206.187 287.056,204.259 287.579,203.245 287.974 C 202.230 288.370,200.500 288.817,199.400 288.969 C 198.300 289.121,196.364 289.595,195.098 290.022 C 188.012 292.417,138.991 292.977,136.100 290.696 C 135.703 290.383,135.600 271.810,135.600 200.227 C 135.600 128.779,135.703 110.019,136.100 109.507 C 137.160 108.138,168.664 107.657,184.600 108.767 " stroke="none" fill="#8cc4fc" fill-rule="evenodd"></path><path id="path4" d="M150.200 78.803 C 143.738 79.517,143.638 79.541,148.200 79.277 C 154.299 78.925,171.761 78.918,177.000 79.265 L 181.000 79.531 177.400 78.986 C 171.093 78.032,157.973 77.944,150.200 78.803 M138.291 79.889 C 139.001 79.977,140.261 79.979,141.091 79.892 C 141.921 79.805,141.340 79.733,139.800 79.731 C 138.260 79.729,137.581 79.800,138.291 79.889 M182.500 79.887 C 183.105 79.978,184.095 79.978,184.700 79.887 C 185.305 79.795,184.810 79.720,183.600 79.720 C 182.390 79.720,181.895 79.795,182.500 79.887 M128.500 80.291 C 129.325 80.378,130.675 80.378,131.500 80.291 C 132.325 80.205,131.650 80.134,130.000 80.134 C 128.350 80.134,127.675 80.205,128.500 80.291 M189.700 80.287 C 190.305 80.378,191.295 80.378,191.900 80.287 C 192.505 80.195,192.010 80.120,190.800 80.120 C 189.590 80.120,189.095 80.195,189.700 80.287 M119.000 81.234 C 115.971 81.788,115.583 81.919,117.400 81.774 C 121.248 81.467,126.954 80.477,124.800 80.490 C 123.810 80.496,121.200 80.831,119.000 81.234 M195.800 81.022 C 200.583 81.953,203.061 82.092,199.200 81.212 C 197.330 80.785,195.170 80.446,194.400 80.457 C 193.429 80.471,193.857 80.644,195.800 81.022 M112.300 82.282 C 112.795 82.378,113.605 82.378,114.100 82.282 C 114.595 82.187,114.190 82.109,113.200 82.109 C 112.210 82.109,111.805 82.187,112.300 82.282 M203.505 82.283 C 204.002 82.379,204.722 82.375,205.105 82.275 C 205.487 82.175,205.080 82.096,204.200 82.101 C 203.320 82.105,203.007 82.187,203.505 82.283 M107.200 83.200 C 104.848 84.187,105.594 84.187,108.400 83.200 C 109.610 82.774,110.240 82.430,109.800 82.435 C 109.360 82.441,108.190 82.785,107.200 83.200 M207.000 82.670 C 207.440 82.768,208.497 83.115,209.350 83.441 C 210.202 83.767,210.975 83.958,211.067 83.867 C 211.351 83.583,208.034 82.397,207.092 82.446 C 206.287 82.488,206.278 82.510,207.000 82.670 M102.414 85.174 C 101.582 86.729,101.865 314.554,102.700 315.307 C 103.085 315.654,103.940 316.043,104.600 316.171 L 105.800 316.405 104.600 315.949 C 103.940 315.698,103.175 315.315,102.900 315.097 C 102.051 314.426,102.179 85.878,103.029 85.029 C 103.374 84.683,103.471 84.400,103.243 84.400 C 103.015 84.400,102.642 84.748,102.414 85.174 M215.600 84.995 C 215.600 85.374,218.573 86.425,219.181 86.260 C 219.591 86.149,219.522 86.077,218.976 86.046 C 218.524 86.021,217.804 85.736,217.376 85.413 C 216.622 84.842,215.600 84.601,215.600 84.995 M224.567 87.817 C 225.869 88.357,226.999 88.734,227.079 88.654 C 227.283 88.450,223.365 86.796,222.726 86.817 C 222.437 86.826,223.265 87.276,224.567 87.817 M229.362 89.800 C 230.396 90.350,231.368 90.794,231.521 90.788 C 232.041 90.764,228.604 88.804,228.040 88.802 C 227.733 88.801,228.327 89.250,229.362 89.800 M235.200 92.200 C 237.579 93.474,238.289 93.470,236.059 92.195 C 235.102 91.648,234.112 91.208,233.859 91.218 C 233.607 91.228,234.210 91.670,235.200 92.200 M238.400 93.484 C 238.730 93.605,239.315 93.979,239.700 94.314 C 240.120 94.680,240.400 94.745,240.400 94.476 C 240.400 93.962,239.106 93.185,238.326 93.232 C 237.963 93.253,237.986 93.332,238.400 93.484 M243.800 96.590 C 244.680 97.132,245.580 97.580,245.800 97.585 C 246.020 97.591,245.480 97.152,244.600 96.610 C 243.720 96.068,242.820 95.620,242.600 95.615 C 242.380 95.609,242.920 96.048,243.800 96.590 M247.246 98.302 C 247.822 98.686,248.994 99.471,249.852 100.046 C 250.710 100.621,251.656 101.386,251.955 101.746 C 252.254 102.106,252.671 102.400,252.884 102.400 C 253.434 102.400,256.900 104.867,257.524 105.702 C 257.813 106.089,258.533 106.656,259.124 106.962 C 259.716 107.269,260.920 108.206,261.800 109.045 C 267.693 114.659,269.700 116.504,269.187 115.835 C 268.864 115.415,267.540 114.065,266.244 112.835 C 264.948 111.606,263.157 109.905,262.264 109.055 C 261.371 108.205,259.956 107.077,259.120 106.550 C 258.284 106.022,257.600 105.430,257.600 105.234 C 257.600 104.912,256.411 104.071,253.570 102.387 C 253.001 102.050,252.010 101.365,251.368 100.865 C 248.106 98.329,247.051 97.600,246.645 97.602 C 246.400 97.603,246.671 97.918,247.246 98.302 M146.600 108.393 C 144.400 108.523,151.150 108.627,161.600 108.622 C 172.050 108.618,178.980 108.495,177.000 108.349 C 172.667 108.031,152.199 108.060,146.600 108.393 M136.261 109.100 C 136.159 109.265,137.003 109.349,138.138 109.286 C 141.816 109.082,142.263 108.921,139.324 108.860 C 137.742 108.827,136.364 108.935,136.261 109.100 M182.700 109.093 C 183.635 109.177,185.165 109.177,186.100 109.093 C 187.035 109.009,186.270 108.940,184.400 108.940 C 182.530 108.940,181.765 109.009,182.700 109.093 M189.700 109.476 C 190.085 109.576,190.715 109.576,191.100 109.476 C 191.485 109.375,191.170 109.293,190.400 109.293 C 189.630 109.293,189.315 109.375,189.700 109.476 M193.200 110.200 C 193.970 110.497,194.870 110.739,195.200 110.739 C 195.530 110.739,195.170 110.497,194.400 110.200 C 193.630 109.903,192.730 109.661,192.400 109.661 C 192.070 109.661,192.430 109.903,193.200 110.200 M135.699 200.020 C 135.596 293.828,135.554 291.246,137.180 291.172 C 137.609 291.152,137.553 291.047,137.000 290.832 C 136.204 290.521,136.199 290.055,135.999 200.160 L 135.797 109.800 135.699 200.020 M199.000 111.470 C 199.440 111.567,201.269 112.102,203.065 112.659 C 204.861 113.216,206.661 113.587,207.065 113.482 C 207.693 113.320,207.676 113.286,206.951 113.246 C 206.484 113.221,204.724 112.750,203.039 112.200 C 201.354 111.650,199.576 111.221,199.088 111.246 C 198.283 111.288,198.275 111.309,199.000 111.470 M209.000 113.999 C 209.660 114.173,210.913 114.694,211.785 115.158 C 212.656 115.621,213.646 116.000,213.985 116.000 C 214.323 116.000,213.459 115.460,212.064 114.800 C 210.669 114.140,209.139 113.618,208.664 113.641 C 208.007 113.672,208.088 113.758,209.000 113.999 M215.200 116.389 C 215.987 116.979,222.493 120.041,222.642 119.891 C 222.773 119.761,220.367 118.503,217.400 117.152 C 214.760 115.949,214.488 115.855,215.200 116.389 M271.400 118.911 C 273.446 121.192,275.312 123.533,277.031 125.978 C 277.564 126.735,278.000 127.218,278.000 127.050 C 278.000 126.646,275.792 123.448,274.679 122.239 C 274.195 121.715,273.170 120.444,272.400 119.416 C 271.630 118.387,270.640 117.352,270.200 117.114 C 269.760 116.877,270.300 117.685,271.400 118.911 M224.382 121.000 C 224.649 121.440,225.945 122.386,227.260 123.103 C 228.575 123.820,229.538 124.223,229.399 123.998 C 229.259 123.773,228.393 123.211,227.473 122.749 C 226.553 122.287,225.371 121.525,224.847 121.055 C 223.960 120.258,223.928 120.254,224.382 121.000 M231.061 125.497 C 231.755 126.104,233.105 127.228,234.061 127.995 C 236.768 130.168,242.278 135.977,243.835 138.300 C 244.609 139.455,245.458 140.394,245.721 140.387 C 246.030 140.379,245.987 140.202,245.600 139.887 C 245.270 139.619,244.460 138.594,243.800 137.609 C 242.249 135.295,235.052 128.043,232.880 126.605 C 231.956 125.994,231.200 125.357,231.200 125.190 C 231.200 125.022,230.885 124.775,230.500 124.640 C 230.115 124.505,230.368 124.890,231.061 125.497 M278.220 128.109 C 278.328 128.388,278.817 128.862,279.308 129.161 C 280.159 129.680,280.155 129.656,279.230 128.653 C 278.148 127.477,277.934 127.362,278.220 128.109 M280.010 130.094 C 280.005 130.256,280.540 131.266,281.200 132.338 C 281.860 133.411,282.400 134.397,282.400 134.530 C 282.400 134.663,282.940 135.624,283.600 136.664 C 284.260 137.705,284.800 138.367,284.800 138.134 C 284.800 137.902,284.350 137.049,283.800 136.238 C 283.250 135.428,282.800 134.629,282.800 134.464 C 282.800 134.064,280.023 129.715,280.010 130.094 M284.800 139.138 C 284.800 139.324,285.188 139.819,285.662 140.238 L 286.524 141.000 285.816 139.900 C 285.086 138.766,284.800 138.551,284.800 139.138 M286.617 142.200 C 286.895 143.650,288.414 146.919,288.685 146.649 C 288.791 146.542,288.588 145.948,288.234 145.328 C 287.880 144.707,287.320 143.480,286.989 142.600 C 286.537 141.396,286.445 141.297,286.617 142.200 M246.607 142.000 C 246.779 142.330,247.234 142.960,247.619 143.400 C 248.005 143.840,248.997 145.550,249.826 147.200 C 251.274 150.087,253.200 152.871,253.200 152.080 C 253.200 151.870,252.926 151.471,252.592 151.193 C 252.257 150.915,251.255 149.228,250.364 147.444 C 249.473 145.660,248.193 143.570,247.520 142.800 C 246.846 142.030,246.435 141.670,246.607 142.000 M289.202 148.879 C 289.201 149.032,289.650 150.004,290.200 151.038 C 290.750 152.073,291.194 152.667,291.188 152.360 C 291.175 151.802,289.206 148.349,289.202 148.879 M253.228 153.215 C 253.213 153.554,253.565 154.544,254.012 155.415 C 254.458 156.287,255.083 157.990,255.400 159.200 C 255.981 161.416,257.600 164.999,257.600 164.069 C 257.600 163.793,257.267 162.900,256.859 162.084 C 256.452 161.268,255.898 159.702,255.629 158.605 C 255.361 157.508,254.974 156.409,254.770 156.163 C 254.565 155.917,254.141 155.015,253.827 154.158 C 253.513 153.301,253.244 152.877,253.228 153.215 M291.233 153.650 C 291.215 154.007,291.484 155.087,291.832 156.050 C 292.180 157.012,292.721 158.880,293.034 160.200 C 293.526 162.268,293.577 162.351,293.406 160.800 C 293.190 158.850,291.286 152.584,291.233 153.650 M294.017 165.056 C 294.008 165.307,294.356 166.297,294.791 167.256 C 295.258 168.284,295.579 168.672,295.574 168.200 C 295.566 167.350,294.045 164.281,294.017 165.056 M258.030 167.056 C 258.013 167.307,258.356 168.297,258.791 169.256 C 259.226 170.215,259.573 170.730,259.562 170.400 C 259.535 169.640,258.070 166.441,258.030 167.056 M295.693 170.800 C 295.693 171.570,295.775 171.885,295.876 171.500 C 295.976 171.115,295.976 170.485,295.876 170.100 C 295.775 169.715,295.693 170.030,295.693 170.800 M259.693 172.400 C 259.693 173.170,259.775 173.485,259.876 173.100 C 259.976 172.715,259.976 172.085,259.876 171.700 C 259.775 171.315,259.693 171.630,259.693 172.400 M296.064 173.800 C 296.040 174.460,296.213 175.810,296.450 176.800 C 296.687 177.790,297.018 179.950,297.185 181.600 L 297.488 184.600 297.544 182.279 C 297.575 181.002,297.337 178.752,297.016 177.279 C 296.695 175.806,296.360 174.150,296.271 173.600 C 296.128 172.721,296.104 172.745,296.064 173.800 M260.092 175.800 C 260.072 176.680,260.475 180.010,260.987 183.200 C 261.499 186.390,261.936 188.317,261.959 187.481 C 261.981 186.646,261.647 183.946,261.215 181.481 C 260.784 179.017,260.363 176.370,260.279 175.600 C 260.131 174.227,260.127 174.231,260.092 175.800 M297.763 191.200 C 297.763 194.830,297.823 196.315,297.898 194.500 C 297.972 192.685,297.972 189.715,297.898 187.900 C 297.823 186.085,297.763 187.570,297.763 191.200 M262.171 200.000 C 262.171 204.950,262.228 206.975,262.299 204.500 C 262.369 202.025,262.369 197.975,262.299 195.500 C 262.228 193.025,262.171 195.050,262.171 200.000 M297.762 209.000 C 297.762 212.520,297.824 213.906,297.898 212.081 C 297.972 210.256,297.972 207.376,297.897 205.681 C 297.822 203.986,297.761 205.480,297.762 209.000 M260.836 218.009 C 260.306 221.864,259.977 225.284,260.105 225.609 C 260.232 225.934,260.351 225.548,260.368 224.752 C 260.386 223.955,260.769 221.179,261.220 218.582 C 261.671 215.984,261.986 213.216,261.920 212.430 C 261.854 211.643,261.366 214.154,260.836 218.009 M297.062 219.100 C 296.923 220.805,296.714 222.740,296.596 223.400 C 296.390 224.562,296.397 224.568,296.817 223.600 C 297.268 222.561,297.872 216.000,297.517 216.000 C 297.405 216.000,297.201 217.395,297.062 219.100 M296.093 226.000 C 296.093 226.770,296.175 227.085,296.276 226.700 C 296.376 226.315,296.376 225.685,296.276 225.300 C 296.175 224.915,296.093 225.230,296.093 226.000 M259.701 227.800 C 259.705 228.680,259.787 228.993,259.883 228.495 C 259.979 227.998,259.975 227.278,259.875 226.895 C 259.775 226.513,259.696 226.920,259.701 227.800 M295.693 229.600 C 295.693 230.370,295.775 230.685,295.876 230.300 C 295.976 229.915,295.976 229.285,295.876 228.900 C 295.775 228.515,295.693 228.830,295.693 229.600 M258.451 231.954 C 257.933 233.259,257.605 234.568,257.723 234.863 C 257.874 235.242,257.946 235.204,257.968 234.733 C 257.986 234.366,258.366 233.213,258.813 232.171 C 259.259 231.128,259.573 230.119,259.509 229.928 C 259.446 229.737,258.970 230.649,258.451 231.954 M294.440 233.982 C 293.928 235.271,293.605 236.568,293.723 236.863 C 293.864 237.218,293.948 237.154,293.968 236.674 C 293.986 236.275,294.385 235.054,294.854 233.962 C 295.324 232.870,295.633 231.900,295.540 231.807 C 295.447 231.714,294.952 232.693,294.440 233.982 M256.205 238.526 C 255.308 240.673,255.488 241.285,256.416 239.240 C 256.855 238.273,257.123 237.390,257.012 237.279 C 256.901 237.168,256.538 237.729,256.205 238.526 M292.096 243.261 C 290.903 247.139,290.987 247.745,292.225 244.200 C 292.763 242.660,293.158 241.157,293.102 240.861 C 293.046 240.564,292.593 241.644,292.096 243.261 M255.246 241.615 C 255.221 241.954,254.840 242.937,254.400 243.800 C 253.960 244.663,253.608 245.556,253.619 245.785 C 253.629 246.013,254.089 245.331,254.642 244.269 C 255.195 243.207,255.567 242.037,255.470 241.669 C 255.327 241.130,255.284 241.120,255.246 241.615 M290.832 247.937 C 290.814 248.232,290.440 248.931,290.000 249.491 C 289.560 250.050,289.214 250.799,289.232 251.154 C 289.258 251.698,289.299 251.705,289.489 251.200 C 289.613 250.870,290.063 250.102,290.488 249.494 C 290.914 248.886,291.173 248.166,291.063 247.894 C 290.915 247.529,290.855 247.540,290.832 247.937 M250.568 251.784 C 250.433 252.325,250.069 252.977,249.761 253.233 C 249.452 253.489,249.200 253.880,249.200 254.103 C 249.200 254.703,250.645 252.744,250.972 251.700 C 251.127 251.205,251.155 250.800,251.035 250.800 C 250.914 250.800,250.704 251.243,250.568 251.784 M287.895 254.546 C 286.400 257.866,286.498 258.407,288.027 255.274 C 288.701 253.891,289.196 252.610,289.127 252.426 C 289.057 252.243,288.503 253.197,287.895 254.546 M247.800 256.515 C 246.074 258.938,246.047 259.275,247.739 257.262 C 248.543 256.306,249.200 255.361,249.200 255.162 C 249.200 254.601,249.083 254.713,247.800 256.515 M286.083 259.083 C 285.805 259.697,285.050 261.100,284.406 262.200 C 283.762 263.300,282.901 264.830,282.493 265.600 C 281.001 268.416,280.178 269.745,279.175 270.959 C 278.611 271.642,277.654 273.062,277.049 274.116 C 276.443 275.170,275.383 276.700,274.692 277.516 L 273.436 279.000 274.663 277.878 C 275.338 277.260,276.573 275.589,277.406 274.164 C 278.240 272.738,279.065 271.484,279.240 271.375 C 279.752 271.059,281.873 267.790,282.777 265.922 C 283.758 263.895,284.627 262.353,285.931 260.321 C 286.453 259.507,286.815 258.644,286.734 258.403 C 286.654 258.162,286.361 258.468,286.083 259.083 M245.130 260.423 C 244.096 261.784,240.772 265.642,238.260 268.400 C 237.358 269.390,235.985 270.679,235.210 271.264 C 234.434 271.849,233.069 273.019,232.176 273.864 C 230.423 275.523,230.743 275.305,234.948 271.976 C 237.772 269.739,247.105 259.200,246.261 259.200 C 246.151 259.200,245.642 259.751,245.130 260.423 M227.512 276.953 C 226.254 277.668,224.885 278.561,224.470 278.936 C 224.055 279.312,222.475 280.244,220.958 281.008 C 219.441 281.772,218.433 282.398,218.717 282.399 C 219.307 282.400,224.496 279.670,224.800 279.198 C 224.910 279.027,226.125 278.229,227.500 277.425 C 228.875 276.620,230.000 275.880,230.000 275.781 C 230.000 275.532,230.069 275.499,227.512 276.953 M271.305 281.689 C 266.672 286.889,259.647 293.231,254.658 296.718 C 253.306 297.662,251.120 299.208,249.800 300.152 C 248.480 301.097,245.960 302.564,244.200 303.412 C 241.182 304.866,238.282 306.800,239.120 306.800 C 239.330 306.800,239.727 306.529,240.002 306.198 C 240.277 305.866,242.324 304.694,244.551 303.592 C 246.778 302.490,249.410 300.965,250.400 300.202 C 251.390 299.440,252.740 298.517,253.400 298.152 C 255.761 296.845,266.074 287.977,269.240 284.532 C 271.981 281.549,273.282 280.000,273.046 280.000 C 272.916 280.000,272.133 280.760,271.305 281.689 M216.400 283.236 C 215.736 283.779,215.669 283.915,216.200 283.640 C 217.505 282.966,218.228 282.412,217.800 282.415 C 217.580 282.417,216.950 282.786,216.400 283.236 M212.141 284.797 C 211.668 284.988,211.154 285.351,210.997 285.605 C 210.821 285.889,211.152 285.844,211.856 285.488 C 212.485 285.170,213.270 284.809,213.600 284.686 C 214.133 284.488,214.133 284.462,213.600 284.457 C 213.270 284.454,212.613 284.607,212.141 284.797 M202.400 287.828 C 200.970 288.351,200.070 288.783,200.400 288.788 C 200.730 288.793,202.260 288.351,203.800 287.807 C 205.340 287.262,206.240 286.831,205.800 286.847 C 205.360 286.864,203.830 287.305,202.400 287.828 M194.600 289.786 C 192.982 290.526,193.953 290.554,195.654 289.816 C 196.394 289.494,196.730 289.232,196.400 289.234 C 196.070 289.235,195.260 289.483,194.600 289.786 M186.700 291.089 C 187.415 291.178,188.585 291.178,189.300 291.089 C 190.015 291.001,189.430 290.928,188.000 290.928 C 186.570 290.928,185.985 291.001,186.700 291.089 M142.400 291.679 C 147.632 292.064,177.958 292.086,181.400 291.708 C 182.972 291.535,174.203 291.400,161.400 291.400 C 148.860 291.400,140.310 291.526,142.400 291.679 M235.000 308.029 C 233.680 308.672,232.870 309.197,233.200 309.197 C 233.530 309.197,234.880 308.658,236.200 308.000 C 237.520 307.342,238.330 306.816,238.000 306.832 C 237.670 306.848,236.320 307.387,235.000 308.029 M230.400 310.000 C 229.850 310.430,229.130 310.800,228.800 310.823 C 228.396 310.850,228.361 310.928,228.694 311.063 C 228.966 311.173,229.686 310.914,230.294 310.488 C 230.902 310.063,231.670 309.613,232.000 309.489 C 232.533 309.288,232.533 309.261,232.000 309.240 C 231.670 309.228,230.950 309.570,230.400 310.000 M225.000 312.226 C 222.379 313.489,223.267 313.486,226.049 312.223 C 227.232 311.686,227.930 311.250,227.600 311.255 C 227.270 311.259,226.100 311.697,225.000 312.226 M216.800 314.600 C 215.590 315.132,214.887 315.575,215.239 315.584 C 215.590 315.593,216.477 315.301,217.211 314.935 C 217.944 314.569,219.097 314.137,219.772 313.976 C 220.858 313.716,220.884 313.679,220.000 313.657 C 219.450 313.643,218.010 314.068,216.800 314.600 M210.696 316.237 C 210.566 316.367,209.771 316.719,208.930 317.019 C 208.069 317.326,207.750 317.567,208.200 317.569 C 208.640 317.571,209.720 317.225,210.600 316.800 C 211.480 316.375,211.915 316.021,211.567 316.014 C 211.218 316.006,210.827 316.107,210.696 316.237 M106.800 317.000 C 107.350 317.314,108.160 317.570,108.600 317.568 C 109.040 317.566,108.680 317.305,107.800 316.988 C 105.796 316.266,105.522 316.270,106.800 317.000 M110.300 317.882 C 110.795 317.978,111.605 317.978,112.100 317.882 C 112.595 317.787,112.190 317.709,111.200 317.709 C 110.210 317.709,109.805 317.787,110.300 317.882 M205.105 317.883 C 205.602 317.979,206.322 317.975,206.705 317.875 C 207.087 317.775,206.680 317.696,205.800 317.701 C 204.920 317.705,204.607 317.787,205.105 317.883 M113.633 318.164 C 114.019 318.543,126.140 320.033,127.699 319.893 L 129.400 319.740 127.400 319.665 C 126.300 319.623,123.150 319.234,120.400 318.800 C 115.568 318.037,113.286 317.822,113.633 318.164 M198.800 318.651 C 197.370 318.964,195.030 319.388,193.600 319.592 L 191.000 319.963 194.000 319.753 C 197.446 319.513,204.939 318.093,202.800 318.085 C 202.030 318.083,200.230 318.337,198.800 318.651 M133.312 320.295 C 134.364 320.377,135.984 320.376,136.912 320.292 C 137.840 320.208,136.980 320.141,135.000 320.142 C 133.020 320.143,132.260 320.212,133.312 320.295 M185.900 320.289 C 186.615 320.378,187.785 320.378,188.500 320.289 C 189.215 320.201,188.630 320.128,187.200 320.128 C 185.770 320.128,185.185 320.201,185.900 320.289 M146.200 321.213 C 149.606 321.627,154.621 321.929,157.800 321.910 L 163.400 321.878 157.400 321.569 C 154.100 321.399,149.420 321.066,147.000 320.830 C 140.092 320.156,139.569 320.406,146.200 321.213 M181.105 320.683 C 181.602 320.779,182.322 320.775,182.705 320.675 C 183.087 320.575,182.680 320.496,181.800 320.501 C 180.920 320.505,180.607 320.587,181.105 320.683 M176.400 321.071 C 175.850 321.154,173.150 321.372,170.400 321.554 L 165.400 321.885 170.200 321.924 C 172.840 321.945,176.170 321.723,177.600 321.429 C 180.038 320.929,179.130 320.658,176.400 321.071 " stroke="none" fill="#74b4fc" fill-rule="evenodd"></path>
</svg>
